<?xml version="1.0" encoding="UTF-8" standalone="no"?>
<!-- Created with Inkscape (http://www.inkscape.org/) -->

<svg
   width="210mm"
   height="297mm"
   viewBox="0 0 210 297"
   version="1.1"
   id="svg5"
   sodipodi:docname="circuit_emb_ini.svg"
   inkscape:version="1.2.2 (b0a8486541, 2022-12-01)"
   xmlns:inkscape="http://www.inkscape.org/namespaces/inkscape"
   xmlns:sodipodi="http://sodipodi.sourceforge.net/DTD/sodipodi-0.dtd"
   xmlns="http://www.w3.org/2000/svg"
   xmlns:svg="http://www.w3.org/2000/svg">
  <sodipodi:namedview
     id="namedview7"
     pagecolor="#ffffff"
     bordercolor="#999999"
     borderopacity="1"
     inkscape:showpageshadow="2"
     inkscape:pageopacity="0"
     inkscape:pagecheckerboard="0"
     inkscape:deskcolor="#d1d1d1"
     inkscape:document-units="mm"
     showgrid="true"
     inkscape:zoom="4.0372807"
     inkscape:cx="245.09071"
     inkscape:cy="69.105921"
     inkscape:window-width="3440"
     inkscape:window-height="1408"
     inkscape:window-x="0"
     inkscape:window-y="32"
     inkscape:window-maximized="1"
     inkscape:current-layer="layer1"
     inkscape:lockguides="true"
     showguides="true">
    <inkscape:grid
       type="xygrid"
       id="grid5676"
       empcolor="#0099e5"
       empopacity="0.50588235"
       color="#000000"
       opacity="0.14901961"
       empspacing="8"
       spacingy="0.79375"
       spacingx="0.79375" />
  </sodipodi:namedview>
  <defs
     id="defs2">
    <marker
       style="overflow:visible"
       id="marker30368"
       refX="0.2"
       refY="0"
       orient="auto-start-reverse"
       inkscape:stockid="TriangleStart"
       markerWidth="3"
       markerHeight="3.46820804"
       viewBox="0 0 5.3244081 6.1553851"
       inkscape:isstock="true"
       inkscape:collect="always"
       preserveAspectRatio="xMidYMid">
      <path
         transform="scale(0.5)"
         style="fill:context-stroke;fill-rule:evenodd;stroke:context-stroke;stroke-width:1pt"
         d="M 5.77,0 -2.88,5 V -5 Z"
         id="path30366" />
    </marker>
    <marker
       style="overflow:visible"
       id="marker29544"
       refX="-0.5"
       refY="0"
       orient="auto-start-reverse"
       inkscape:stockid="TriangleStart"
       markerWidth="3"
       markerHeight="3.4682081"
       viewBox="0 0 5.3244081 6.1553851"
       inkscape:isstock="true"
       inkscape:collect="always"
       preserveAspectRatio="xMidYMid">
      <path
         transform="scale(0.5)"
         style="fill:context-stroke;fill-rule:evenodd;stroke:context-stroke;stroke-width:1pt"
         d="M 5.77,0 -2.88,5 V -5 Z"
         id="path29542" />
    </marker>
    <rect
       x="159"
       y="60"
       width="66"
       height="21"
       id="rect22528" />
    <marker
       style="overflow:visible"
       id="TriangleStart"
       refX="0"
       refY="0"
       orient="auto-start-reverse"
       inkscape:stockid="TriangleStart"
       markerWidth="3"
       markerHeight="3.4682081"
       viewBox="0 0 5.3244081 6.1553851"
       inkscape:isstock="true"
       inkscape:collect="always"
       preserveAspectRatio="xMidYMid">
      <path
         transform="scale(0.5)"
         style="fill:context-stroke;fill-rule:evenodd;stroke:context-stroke;stroke-width:1pt"
         d="M 5.77,0 -2.88,5 V -5 Z"
         id="path135" />
    </marker>
    <clipPath
       id="clipPath7626">
      <path
         clip-rule="nonzero"
         d="M 0,1 H 8 V 8.109375 H 0 Z m 0,0"
         id="path3859" />
    </clipPath>
    <clipPath
       id="clipPath5627">
      <path
         clip-rule="nonzero"
         d="M 21,3 H 35 V 8.109375 H 21 Z m 0,0"
         id="path6218" />
    </clipPath>
    <clipPath
       id="clipPath8020">
      <path
         clip-rule="nonzero"
         d="M 0,0 H 22 V 6.917969 H 0 Z m 0,0"
         id="path8023" />
    </clipPath>
    <clipPath
       id="clipPath9610">
      <path
         clip-rule="nonzero"
         d="M 22,0 H 35.867188 V 6.917969 H 22 Z m 0,0"
         id="path7161" />
    </clipPath>
    <clipPath
       id="clipPath8020-6">
      <path
         clip-rule="nonzero"
         d="M 0,0 H 22 V 6.917969 H 0 Z m 0,0"
         id="path8023-1" />
    </clipPath>
    <clipPath
       id="clipPath9610-8">
      <path
         clip-rule="nonzero"
         d="M 22,0 H 35.867188 V 6.917969 H 22 Z m 0,0"
         id="path7161-7" />
    </clipPath>
    <marker
       style="overflow:visible"
       id="TriangleStart-9"
       refX="0"
       refY="0"
       orient="auto-start-reverse"
       inkscape:stockid="TriangleStart"
       markerWidth="3"
       markerHeight="3.4682081"
       viewBox="0 0 5.3244081 6.1553851"
       inkscape:isstock="true"
       inkscape:collect="always"
       preserveAspectRatio="xMidYMid">
      <path
         transform="scale(0.5)"
         style="fill:context-stroke;fill-rule:evenodd;stroke:context-stroke;stroke-width:1pt"
         d="M 5.77,0 -2.88,5 V -5 Z"
         id="path135-4" />
    </marker>
    <clipPath
       id="clipPath3043">
      <path
         clip-rule="nonzero"
         d="M 0,0 H 22 V 6.917969 H 0 Z m 0,0"
         id="path2231" />
    </clipPath>
    <clipPath
       id="clipPath9520">
      <path
         clip-rule="nonzero"
         d="M 22,0 H 35.589844 V 6.917969 H 22 Z m 0,0"
         id="path987" />
    </clipPath>
    <clipPath
       id="clipPath4541">
      <path
         clip-rule="nonzero"
         d="m 9,3 h 3 V 6.078125 H 9 Z m 0,0"
         id="path7020" />
    </clipPath>
    <clipPath
       id="clipPath966">
      <path
         clip-rule="nonzero"
         d="m 9,3 h 3 V 8.347656 H 9 Z m 0,0"
         id="path1006" />
    </clipPath>
    <clipPath
       id="clipPath9539">
      <path
         clip-rule="nonzero"
         d="m 25,4 h 5 v 4.347656 h -5 z m 0,0"
         id="path4661" />
    </clipPath>
    <clipPath
       id="clipPath9511">
      <path
         clip-rule="nonzero"
         d="m 30,3 h 3 v 5.347656 h -3 z m 0,0"
         id="path2146" />
    </clipPath>
  </defs>
  <g
     inkscape:label="Layer 1"
     inkscape:groupmode="layer"
     id="layer1">
    <rect
       style="fill:#e5e5e5;fill-opacity:1;stroke:#000000;stroke-width:0.5;stroke-linejoin:round;stroke-miterlimit:0.5;stroke-dasharray:none;stroke-opacity:1"
       id="rect8219"
       width="12.699999"
       height="12.700001"
       x="6.3500018"
       y="12.7" />
    <rect
       style="fill:#000000;fill-opacity:1;stroke:#000000;stroke-width:0;stroke-linejoin:miter;stroke-miterlimit:0.5;stroke-dasharray:none;stroke-opacity:1"
       id="rect12683-62"
       width="1.5875"
       height="1.5875"
       x="15.875"
       y="22.225002" />
    <rect
       style="fill:#000000;fill-opacity:1;stroke:#000000;stroke-width:0;stroke-linejoin:miter;stroke-miterlimit:0.5;stroke-dasharray:none;stroke-opacity:1"
       id="rect12683-6"
       width="1.5875"
       height="1.5875"
       x="9.5250015"
       y="15.875001" />
    <rect
       style="fill:#000000;fill-opacity:1;stroke:#000000;stroke-width:0;stroke-linejoin:miter;stroke-miterlimit:0.5;stroke-dasharray:none;stroke-opacity:1"
       id="rect12683-7"
       width="1.5875"
       height="1.5875"
       x="12.700001"
       y="19.050001" />
    <rect
       style="fill:#000000;fill-opacity:1;stroke:#000000;stroke-width:0;stroke-linejoin:miter;stroke-miterlimit:0.5;stroke-dasharray:none;stroke-opacity:1"
       id="rect12683-35"
       width="1.5875"
       height="1.5875"
       x="11.112503"
       y="23.812502" />
    <rect
       style="fill:#000000;fill-opacity:1;stroke:#000000;stroke-width:0;stroke-linejoin:miter;stroke-miterlimit:0.5;stroke-dasharray:none;stroke-opacity:1"
       id="rect12683-9"
       width="1.5875"
       height="1.5875"
       x="14.287498"
       y="20.637501" />
    <rect
       style="fill:#000000;fill-opacity:1;stroke:#000000;stroke-width:0;stroke-linejoin:miter;stroke-miterlimit:0.5;stroke-dasharray:none;stroke-opacity:1"
       id="rect12683-5"
       width="1.5875"
       height="1.5875"
       x="17.462502"
       y="17.462502" />
    <rect
       style="fill:#000000;fill-opacity:1;stroke:#000000;stroke-width:0;stroke-linejoin:miter;stroke-miterlimit:0.5;stroke-dasharray:none;stroke-opacity:1"
       id="rect12683-3"
       width="1.5875"
       height="1.5875"
       x="6.3500018"
       y="14.287501" />
    <rect
       style="fill:#000000;fill-opacity:1;stroke:#000000;stroke-width:0;stroke-linejoin:miter;stroke-miterlimit:0.5;stroke-dasharray:none;stroke-opacity:1"
       id="rect12683"
       width="1.5875"
       height="1.5875"
       x="7.9374995"
       y="12.7" />
    <g
       id="g25474">
      <ellipse
         style="fill:#ffffff;fill-opacity:1;stroke:#000000;stroke-width:0.300001;stroke-linejoin:miter;stroke-miterlimit:0.5;stroke-dasharray:none;stroke-opacity:1"
         id="path15510"
         cx="25.549999"
         cy="13.49375"
         rx="1.5263447"
         ry="1.5292898" />
      <path
         style="fill:#ffffff;fill-opacity:1;stroke:#000000;stroke-width:0.300001;stroke-linejoin:miter;stroke-miterlimit:0.5;stroke-dasharray:none;stroke-opacity:1"
         d="m 24.023654,13.49375 c 0,-0.764645 0.763173,-0.764645 0.763173,-0.764645 0.763172,0 0.763172,0.764645 0.763172,0.764645 0,0.764645 0.763172,0.764645 0.763172,0.764645 0.763173,0 0.763173,-0.764645 0.763173,-0.764645"
         id="path15514" />
    </g>
    <path
       style="fill:none;fill-rule:evenodd;stroke:#000000;stroke-width:0.298608;stroke-linecap:butt;stroke-linejoin:miter;stroke-dasharray:none;stroke-opacity:1;marker-end:url(#TriangleStart)"
       d="M 19.058129,19.05 H 31.147576"
       id="path18696"
       inkscape:connector-type="polyline"
       inkscape:connector-curvature="0" />
    <path
       style="fill:#ffffff;fill-opacity:1;stroke:#000000;stroke-width:0.3;stroke-linejoin:miter;stroke-miterlimit:0.5;stroke-dasharray:none;stroke-opacity:1"
       d="m 25.55,15.08125 c 0,3.96875 0,3.96875 0,3.96875"
       id="path20327" />
    <circle
       style="fill:#000000;fill-opacity:1;stroke:#000000;stroke-width:0.3;stroke-linejoin:miter;stroke-miterlimit:0.5;stroke-dasharray:none;stroke-opacity:1"
       id="path20388"
       cx="25.549999"
       cy="19.049999"
       r="0.39687499" />
    <text
       xml:space="preserve"
       transform="scale(0.26458333)"
       id="text22526"
       style="white-space:pre;shape-inside:url(#rect22528);display:inline;fill:none;fill-opacity:1;stroke:#000000;stroke-width:1.13386;stroke-linejoin:miter;stroke-miterlimit:0.5;stroke-dasharray:none;stroke-opacity:1" />
    <rect
       style="fill:#cbe3bd;fill-opacity:1;stroke:#000000;stroke-width:0.49768;stroke-linejoin:miter;stroke-miterlimit:0.5;stroke-dasharray:none;stroke-opacity:1"
       id="rect13075"
       width="25.161692"
       height="12.701622"
       x="31.990154"
       y="12.699189"
       rx="2"
       inkscape:label="rect13075" />
    <g
       id="g25533"
       transform="matrix(0.99061661,0,0,1.0001277,-5.7526461,-0.00243227)">
      <g
         clip-path="url(#clipPath8020)"
         id="g43"
         transform="matrix(0.352778,0,0,0.352778,44.46426,17.829746)">
        <g
           fill="#000000"
           fill-opacity="1"
           id="g41">
          <g
             id="use33"
             transform="translate(0,6.9180002)">
            <path
               d="m 1.359375,-0.78125 c 0,0.359375 -0.03125,0.46875 -0.796875,0.46875 H 0.328125 V 0 h 5.75 L 6.5,-2.578125 H 6.25 C 6,-1.03125 5.765625,-0.3125 4.0625,-0.3125 H 2.734375 C 2.265625,-0.3125 2.25,-0.375 2.25,-0.703125 V -3.375 h 0.890625 c 0.96875,0 1.078125,0.328125 1.078125,1.171875 h 0.25 V -4.84375 h -0.25 c 0,0.859375 -0.109375,1.171875 -1.078125,1.171875 H 2.25 v -2.40625 c 0,-0.328125 0.015625,-0.390625 0.484375,-0.390625 h 1.28125 c 1.53125,0 1.796875,0.546875 1.953125,1.9375 h 0.25 l -0.28125,-2.25 H 0.328125 v 0.3125 H 0.5625 c 0.765625,0 0.796875,0.109375 0.796875,0.46875 z m 0,0"
               id="path59" />
          </g>
          <g
             id="use35"
             transform="translate(6.7805462,6.9180002)">
            <path
               d="M 1.09375,-3.421875 V -0.75 c 0,0.4375 -0.109375,0.4375 -0.78125,0.4375 V 0 c 0.359375,-0.015625 0.859375,-0.03125 1.140625,-0.03125 0.25,0 0.765625,0.015625 1.109375,0.03125 v -0.3125 c -0.671875,0 -0.78125,0 -0.78125,-0.4375 V -2.59375 C 1.78125,-3.625 2.5,-4.1875 3.125,-4.1875 c 0.640625,0 0.75,0.53125 0.75,1.109375 V -0.75 c 0,0.4375 -0.109375,0.4375 -0.78125,0.4375 V 0 c 0.34375,-0.015625 0.859375,-0.03125 1.125,-0.03125 0.25,0 0.78125,0.015625 1.109375,0.03125 v -0.3125 c -0.515625,0 -0.765625,0 -0.765625,-0.296875 v -1.90625 c 0,-0.859375 0,-1.15625 -0.3125,-1.515625 -0.140625,-0.171875 -0.46875,-0.375 -1.046875,-0.375 C 2.46875,-4.40625 2,-3.984375 1.71875,-3.359375 V -4.40625 L 0.3125,-4.296875 v 0.3125 c 0.703125,0 0.78125,0.0625 0.78125,0.5625 z m 0,0"
               id="path63" />
          </g>
          <g
             id="use37"
             transform="translate(12.315766,6.9180002)">
            <path
               d="m 1.171875,-2.171875 c 0,-1.625 0.8125,-2.046875 1.34375,-2.046875 0.09375,0 0.71875,0.015625 1.0625,0.375 -0.40625,0.03125 -0.46875,0.328125 -0.46875,0.453125 0,0.265625 0.1875,0.453125 0.453125,0.453125 0.265625,0 0.46875,-0.15625 0.46875,-0.46875 0,-0.671875 -0.765625,-1.0625 -1.53125,-1.0625 -1.25,0 -2.15625,1.078125 -2.15625,2.3125 0,1.28125 0.984375,2.265625 2.140625,2.265625 1.328125,0 1.65625,-1.203125 1.65625,-1.296875 0,-0.09375 -0.109375,-0.09375 -0.140625,-0.09375 -0.078125,0 -0.109375,0.03125 -0.125,0.09375 -0.28125,0.921875 -0.9375,1.046875 -1.296875,1.046875 -0.53125,0 -1.40625,-0.421875 -1.40625,-2.03125 z m 0,0"
               id="path67" />
          </g>
          <g
             id="use39"
             transform="translate(16.743147,6.9180002)">
            <path
               d="M 4.6875,-2.140625 C 4.6875,-3.40625 3.703125,-4.46875 2.5,-4.46875 c -1.25,0 -2.21875,1.09375 -2.21875,2.328125 0,1.296875 1.03125,2.25 2.203125,2.25 1.203125,0 2.203125,-0.984375 2.203125,-2.25 z m -2.1875,2 c -0.4375,0 -0.875,-0.203125 -1.140625,-0.671875 -0.25,-0.4375 -0.25,-1.046875 -0.25,-1.40625 0,-0.390625 0,-0.921875 0.234375,-1.359375 C 1.609375,-4.03125 2.078125,-4.25 2.484375,-4.25 c 0.4375,0 0.859375,0.21875 1.125,0.65625 0.265625,0.421875 0.265625,1 0.265625,1.375 0,0.359375 0,0.90625 -0.21875,1.34375 C 3.421875,-0.421875 2.984375,-0.140625 2.5,-0.140625 Z m 0,0"
               id="path71" />
          </g>
        </g>
      </g>
      <g
         clip-path="url(#clipPath9610)"
         id="g53"
         transform="matrix(0.352778,0,0,0.352778,44.46426,17.829746)">
        <g
           fill="#000000"
           fill-opacity="1"
           id="g51">
          <g
             id="use45"
             transform="translate(22.003399,6.9180002)">
            <path
               d="m 3.78125,-0.546875 v 0.65625 L 5.25,0 v -0.3125 c -0.6875,0 -0.78125,-0.0625 -0.78125,-0.5625 V -6.921875 L 3.046875,-6.8125 V -6.5 c 0.6875,0 0.765625,0.0625 0.765625,0.5625 v 2.15625 c -0.28125,-0.359375 -0.71875,-0.625 -1.25,-0.625 -1.171875,0 -2.21875,0.984375 -2.21875,2.265625 0,1.265625 0.96875,2.25 2.109375,2.25 0.640625,0 1.078125,-0.34375 1.328125,-0.65625 z m 0,-2.671875 v 2.046875 c 0,0.171875 0,0.1875 -0.109375,0.359375 C 3.375,-0.328125 2.9375,-0.109375 2.5,-0.109375 2.046875,-0.109375 1.6875,-0.375 1.453125,-0.75 1.203125,-1.15625 1.171875,-1.71875 1.171875,-2.140625 1.171875,-2.5 1.1875,-3.09375 1.46875,-3.546875 1.6875,-3.859375 2.0625,-4.1875 2.609375,-4.1875 c 0.34375,0 0.765625,0.15625 1.0625,0.59375 0.109375,0.171875 0.109375,0.1875 0.109375,0.375 z m 0,0"
               id="path75" />
          </g>
          <g
             id="use47"
             transform="translate(27.538618,6.9180002)">
            <path
               d="M 1.109375,-2.515625 C 1.171875,-4 2.015625,-4.25 2.359375,-4.25 c 1.015625,0 1.125,1.34375 1.125,1.734375 z m 0,0.21875 h 2.78125 c 0.21875,0 0.25,0 0.25,-0.21875 0,-0.984375 -0.546875,-1.953125 -1.78125,-1.953125 -1.15625,0 -2.078125,1.03125 -2.078125,2.28125 0,1.328125 1.046875,2.296875 2.1875,2.296875 C 3.6875,0.109375 4.140625,-1 4.140625,-1.1875 4.140625,-1.28125 4.0625,-1.3125 4,-1.3125 c -0.078125,0 -0.109375,0.0625 -0.125,0.140625 -0.34375,1.03125 -1.25,1.03125 -1.34375,1.03125 -0.5,0 -0.890625,-0.296875 -1.125,-0.671875 -0.296875,-0.46875 -0.296875,-1.125 -0.296875,-1.484375 z m 0,0"
               id="path79" />
          </g>
          <g
             id="use49"
             transform="translate(31.965998,6.9180002)">
            <path
               d="M 1.671875,-3.3125 V -4.40625 L 0.28125,-4.296875 v 0.3125 c 0.703125,0 0.78125,0.0625 0.78125,0.5625 V -0.75 c 0,0.4375 -0.109375,0.4375 -0.78125,0.4375 V 0 c 0.390625,-0.015625 0.859375,-0.03125 1.140625,-0.03125 0.390625,0 0.859375,0 1.265625,0.03125 V -0.3125 H 2.46875 c -0.734375,0 -0.75,-0.109375 -0.75,-0.46875 V -2.3125 c 0,-0.984375 0.421875,-1.875 1.171875,-1.875 0.0625,0 0.09375,0 0.109375,0.015625 -0.03125,0 -0.234375,0.125 -0.234375,0.390625 0,0.265625 0.21875,0.421875 0.4375,0.421875 0.171875,0 0.421875,-0.125 0.421875,-0.4375 0,-0.3125 -0.3125,-0.609375 -0.734375,-0.609375 -0.734375,0 -1.09375,0.671875 -1.21875,1.09375 z m 0,0"
               id="path83" />
          </g>
        </g>
      </g>
    </g>
    <rect
       style="fill:#e5e5e5;fill-opacity:1;stroke:#000000;stroke-width:0.5;stroke-linejoin:round;stroke-miterlimit:0.5;stroke-dasharray:none;stroke-opacity:1"
       id="rect8219-2"
       width="12.699999"
       height="12.700001"
       x="6.3290462"
       y="28.575001" />
    <rect
       style="fill:#000000;fill-opacity:1;stroke:#000000;stroke-width:0;stroke-linejoin:miter;stroke-miterlimit:0.5;stroke-dasharray:none;stroke-opacity:1"
       id="rect12683-62-7"
       width="1.5875"
       height="1.5875"
       x="15.854044"
       y="38.100002" />
    <rect
       style="fill:#000000;fill-opacity:1;stroke:#000000;stroke-width:0;stroke-linejoin:miter;stroke-miterlimit:0.5;stroke-dasharray:none;stroke-opacity:1"
       id="rect12683-6-0"
       width="1.5875"
       height="1.5875"
       x="9.5040455"
       y="31.75" />
    <rect
       style="fill:#000000;fill-opacity:1;stroke:#000000;stroke-width:0;stroke-linejoin:miter;stroke-miterlimit:0.5;stroke-dasharray:none;stroke-opacity:1"
       id="rect12683-7-9"
       width="1.5875"
       height="1.5875"
       x="12.679045"
       y="34.925003" />
    <rect
       style="fill:#000000;fill-opacity:1;stroke:#000000;stroke-width:0;stroke-linejoin:miter;stroke-miterlimit:0.5;stroke-dasharray:none;stroke-opacity:1"
       id="rect12683-35-3"
       width="1.5875"
       height="1.5875"
       x="17.441545"
       y="39.6875" />
    <rect
       style="fill:#000000;fill-opacity:1;stroke:#000000;stroke-width:0;stroke-linejoin:miter;stroke-miterlimit:0.5;stroke-dasharray:none;stroke-opacity:1"
       id="rect12683-9-6"
       width="1.5875"
       height="1.5875"
       x="14.266542"
       y="36.512501" />
    <rect
       style="fill:#000000;fill-opacity:1;stroke:#000000;stroke-width:0;stroke-linejoin:miter;stroke-miterlimit:0.5;stroke-dasharray:none;stroke-opacity:1"
       id="rect12683-5-0"
       width="1.5875"
       height="1.5875"
       x="11.091546"
       y="33.337502" />
    <rect
       style="fill:#000000;fill-opacity:1;stroke:#000000;stroke-width:0;stroke-linejoin:miter;stroke-miterlimit:0.5;stroke-dasharray:none;stroke-opacity:1"
       id="rect12683-3-6"
       width="1.5875"
       height="1.5875"
       x="7.9165459"
       y="30.162498" />
    <rect
       style="fill:#000000;fill-opacity:1;stroke:#000000;stroke-width:0;stroke-linejoin:miter;stroke-miterlimit:0.5;stroke-dasharray:none;stroke-opacity:1"
       id="rect12683-2"
       width="1.5875"
       height="1.5875"
       x="6.3290462"
       y="28.574999" />
    <rect
       style="fill:#8ebadb;fill-opacity:1;stroke:#000000;stroke-width:0.5;stroke-linejoin:miter;stroke-miterlimit:0.5;stroke-dasharray:none;stroke-opacity:1"
       id="rect13075-2"
       width="50.427349"
       height="12.659712"
       x="31.75"
       y="28.595144"
       rx="2" />
    <path
       style="fill:none;fill-rule:evenodd;stroke:#000000;stroke-width:0.298608;stroke-linecap:butt;stroke-linejoin:miter;stroke-dasharray:none;stroke-opacity:1;marker-end:url(#TriangleStart-9)"
       d="M 18.81309,34.925001 H 30.902537"
       id="path18696-7"
       inkscape:connector-type="polyline"
       inkscape:connector-curvature="0" />
    <circle
       style="fill:#000000;fill-opacity:1;stroke:#000000;stroke-width:0.3;stroke-linejoin:miter;stroke-miterlimit:0.5;stroke-dasharray:none;stroke-opacity:1"
       id="path20388-8"
       cx="25.379045"
       cy="34.924999"
       r="0.39687499" />
    <path
       style="fill:#ffffff;fill-opacity:1;stroke:#000000;stroke-width:0.3;stroke-linejoin:miter;stroke-miterlimit:0.5;stroke-dasharray:none;stroke-opacity:1"
       d="m 25.379046,34.925001 c 0,3.96875 0,3.96875 0,3.96875"
       id="path20327-4" />
    <ellipse
       style="fill:#ffffff;fill-opacity:1;stroke:#000000;stroke-width:0.300001;stroke-linejoin:miter;stroke-miterlimit:0.5;stroke-dasharray:none;stroke-opacity:1"
       id="path15510-0"
       cx="25.379045"
       cy="40.452145"
       rx="1.5263447"
       ry="1.5292898" />
    <path
       style="fill:#ffffff;fill-opacity:1;stroke:#000000;stroke-width:0.300001;stroke-linejoin:miter;stroke-miterlimit:0.5;stroke-dasharray:none;stroke-opacity:1"
       d="m 23.8527,40.452146 c 0,-0.764645 0.763173,-0.764645 0.763173,-0.764645 0.763172,0 0.763172,0.764645 0.763172,0.764645 0,0.764645 0.763172,0.764645 0.763172,0.764645 0.763173,0 0.763173,-0.764645 0.763173,-0.764645"
       id="path15514-3" />
    <g
       clip-path="url(#clipPath3043)"
       id="g40"
       transform="matrix(0.352778,0,0,0.352778,50.674209,33.704747)">
      <g
         fill="#000000"
         fill-opacity="1"
         id="g38">
        <g
           id="use30"
           transform="translate(0,6.9180002)">
          <path
             d="M 0.34375,-6.8125 V -6.5 h 0.25 c 0.765625,0 0.78125,0.109375 0.78125,0.46875 v 5.25 c 0,0.359375 -0.015625,0.46875 -0.78125,0.46875 h -0.25 V 0 H 4 C 5.671875,0 7.046875,-1.46875 7.046875,-3.34375 7.046875,-5.25 5.703125,-6.8125 4,-6.8125 Z m 2.375,6.5 C 2.25,-0.3125 2.234375,-0.375 2.234375,-0.703125 V -6.09375 C 2.234375,-6.4375 2.25,-6.5 2.71875,-6.5 h 1 c 0.625,0 1.3125,0.21875 1.8125,0.921875 0.4375,0.59375 0.515625,1.453125 0.515625,2.234375 0,1.09375 -0.1875,1.703125 -0.546875,2.1875 -0.203125,0.265625 -0.765625,0.84375 -1.765625,0.84375 z m 0,0"
             id="path56" />
        </g>
        <g
           id="use32"
           transform="translate(7.6104298,6.9180002)">
          <path
             d="M 1.109375,-2.515625 C 1.171875,-4 2.015625,-4.25 2.359375,-4.25 c 1.015625,0 1.125,1.34375 1.125,1.734375 z m 0,0.21875 h 2.78125 c 0.21875,0 0.25,0 0.25,-0.21875 0,-0.984375 -0.546875,-1.953125 -1.78125,-1.953125 -1.15625,0 -2.078125,1.03125 -2.078125,2.28125 0,1.328125 1.046875,2.296875 2.1875,2.296875 C 3.6875,0.109375 4.140625,-1 4.140625,-1.1875 4.140625,-1.28125 4.0625,-1.3125 4,-1.3125 c -0.078125,0 -0.109375,0.0625 -0.125,0.140625 -0.34375,1.03125 -1.25,1.03125 -1.34375,1.03125 -0.5,0 -0.890625,-0.296875 -1.125,-0.671875 -0.296875,-0.46875 -0.296875,-1.125 -0.296875,-1.484375 z m 0,0"
             id="path60" />
        </g>
        <g
           id="use34"
           transform="translate(12.03781,6.9180002)">
          <path
             d="m 1.171875,-2.171875 c 0,-1.625 0.8125,-2.046875 1.34375,-2.046875 0.09375,0 0.71875,0.015625 1.0625,0.375 -0.40625,0.03125 -0.46875,0.328125 -0.46875,0.453125 0,0.265625 0.1875,0.453125 0.453125,0.453125 0.265625,0 0.46875,-0.15625 0.46875,-0.46875 0,-0.671875 -0.765625,-1.0625 -1.53125,-1.0625 -1.25,0 -2.15625,1.078125 -2.15625,2.3125 0,1.28125 0.984375,2.265625 2.140625,2.265625 1.328125,0 1.65625,-1.203125 1.65625,-1.296875 0,-0.09375 -0.109375,-0.09375 -0.140625,-0.09375 -0.078125,0 -0.109375,0.03125 -0.125,0.09375 -0.28125,0.921875 -0.9375,1.046875 -1.296875,1.046875 -0.53125,0 -1.40625,-0.421875 -1.40625,-2.03125 z m 0,0"
             id="path64" />
        </g>
        <g
           id="use36"
           transform="translate(16.465189,6.9180002)">
          <path
             d="M 4.6875,-2.140625 C 4.6875,-3.40625 3.703125,-4.46875 2.5,-4.46875 c -1.25,0 -2.21875,1.09375 -2.21875,2.328125 0,1.296875 1.03125,2.25 2.203125,2.25 1.203125,0 2.203125,-0.984375 2.203125,-2.25 z m -2.1875,2 c -0.4375,0 -0.875,-0.203125 -1.140625,-0.671875 -0.25,-0.4375 -0.25,-1.046875 -0.25,-1.40625 0,-0.390625 0,-0.921875 0.234375,-1.359375 C 1.609375,-4.03125 2.078125,-4.25 2.484375,-4.25 c 0.4375,0 0.859375,0.21875 1.125,0.65625 0.265625,0.421875 0.265625,1 0.265625,1.375 0,0.359375 0,0.90625 -0.21875,1.34375 C 3.421875,-0.421875 2.984375,-0.140625 2.5,-0.140625 Z m 0,0"
             id="path68" />
        </g>
      </g>
    </g>
    <g
       clip-path="url(#clipPath9520)"
       id="g50"
       transform="matrix(0.352778,0,0,0.352778,50.674209,33.704747)">
      <g
         fill="#000000"
         fill-opacity="1"
         id="g48">
        <g
           id="use42"
           transform="translate(21.725443,6.9180002)">
          <path
             d="m 3.78125,-0.546875 v 0.65625 L 5.25,0 v -0.3125 c -0.6875,0 -0.78125,-0.0625 -0.78125,-0.5625 V -6.921875 L 3.046875,-6.8125 V -6.5 c 0.6875,0 0.765625,0.0625 0.765625,0.5625 v 2.15625 c -0.28125,-0.359375 -0.71875,-0.625 -1.25,-0.625 -1.171875,0 -2.21875,0.984375 -2.21875,2.265625 0,1.265625 0.96875,2.25 2.109375,2.25 0.640625,0 1.078125,-0.34375 1.328125,-0.65625 z m 0,-2.671875 v 2.046875 c 0,0.171875 0,0.1875 -0.109375,0.359375 C 3.375,-0.328125 2.9375,-0.109375 2.5,-0.109375 2.046875,-0.109375 1.6875,-0.375 1.453125,-0.75 1.203125,-1.15625 1.171875,-1.71875 1.171875,-2.140625 1.171875,-2.5 1.1875,-3.09375 1.46875,-3.546875 1.6875,-3.859375 2.0625,-4.1875 2.609375,-4.1875 c 0.34375,0 0.765625,0.15625 1.0625,0.59375 0.109375,0.171875 0.109375,0.1875 0.109375,0.375 z m 0,0"
             id="path72" />
        </g>
        <g
           id="use44"
           transform="translate(27.260662,6.9180002)">
          <path
             d="M 1.109375,-2.515625 C 1.171875,-4 2.015625,-4.25 2.359375,-4.25 c 1.015625,0 1.125,1.34375 1.125,1.734375 z m 0,0.21875 h 2.78125 c 0.21875,0 0.25,0 0.25,-0.21875 0,-0.984375 -0.546875,-1.953125 -1.78125,-1.953125 -1.15625,0 -2.078125,1.03125 -2.078125,2.28125 0,1.328125 1.046875,2.296875 2.1875,2.296875 C 3.6875,0.109375 4.140625,-1 4.140625,-1.1875 4.140625,-1.28125 4.0625,-1.3125 4,-1.3125 c -0.078125,0 -0.109375,0.0625 -0.125,0.140625 -0.34375,1.03125 -1.25,1.03125 -1.34375,1.03125 -0.5,0 -0.890625,-0.296875 -1.125,-0.671875 -0.296875,-0.46875 -0.296875,-1.125 -0.296875,-1.484375 z m 0,0"
             id="path76" />
        </g>
        <g
           id="use46"
           transform="translate(31.688042,6.9180002)">
          <path
             d="M 1.671875,-3.3125 V -4.40625 L 0.28125,-4.296875 v 0.3125 c 0.703125,0 0.78125,0.0625 0.78125,0.5625 V -0.75 c 0,0.4375 -0.109375,0.4375 -0.78125,0.4375 V 0 c 0.390625,-0.015625 0.859375,-0.03125 1.140625,-0.03125 0.390625,0 0.859375,0 1.265625,0.03125 V -0.3125 H 2.46875 c -0.734375,0 -0.75,-0.109375 -0.75,-0.46875 V -2.3125 c 0,-0.984375 0.421875,-1.875 1.171875,-1.875 0.0625,0 0.09375,0 0.109375,0.015625 -0.03125,0 -0.234375,0.125 -0.234375,0.390625 0,0.265625 0.21875,0.421875 0.4375,0.421875 0.171875,0 0.421875,-0.125 0.421875,-0.4375 0,-0.3125 -0.3125,-0.609375 -0.734375,-0.609375 -0.734375,0 -1.09375,0.671875 -1.21875,1.09375 z m 0,0"
             id="path80" />
        </g>
      </g>
    </g>
    <rect
       style="fill:#e5e5e5;fill-opacity:1;stroke:#000000;stroke-width:0.5;stroke-linejoin:round;stroke-miterlimit:0.5;stroke-dasharray:none;stroke-opacity:1"
       id="rect8219-1-4"
       width="12.699999"
       height="12.700001"
       x="92.075005"
       y="26.987499" />
    <g
       id="g37890">
      <rect
         style="fill:#ffffff;fill-opacity:1;stroke:#000000;stroke-width:0.5;stroke-linejoin:round;stroke-miterlimit:0.5;stroke-dasharray:none;stroke-opacity:1"
         id="rect8219-1"
         width="12.699999"
         height="12.700001"
         x="90.487495"
         y="28.575001" />
      <rect
         style="fill:#2b2b2b;fill-opacity:1;stroke:#000000;stroke-width:0;stroke-linejoin:miter;stroke-miterlimit:0.5;stroke-dasharray:none;stroke-opacity:1"
         id="rect12683-3-1-49-7-8"
         width="1.5875"
         height="1.5875"
         x="101.6"
         y="30.1625" />
      <rect
         style="fill:#acacac;fill-opacity:1;stroke:#000000;stroke-width:0;stroke-linejoin:miter;stroke-miterlimit:0.5;stroke-dasharray:none;stroke-opacity:1"
         id="rect12683-3-1-31-2-1"
         width="1.5875"
         height="1.5875"
         x="101.6"
         y="28.575001" />
      <rect
         style="fill:#484848;fill-opacity:1;stroke:#000000;stroke-width:0;stroke-linejoin:miter;stroke-miterlimit:0.5;stroke-dasharray:none;stroke-opacity:1"
         id="rect12683-3-1-4-7-0"
         width="1.5875"
         height="1.5875"
         x="100.0125"
         y="30.1625" />
      <rect
         style="fill:#cacaca;fill-opacity:1;stroke:#000000;stroke-width:0;stroke-linejoin:miter;stroke-miterlimit:0.5;stroke-dasharray:none;stroke-opacity:1"
         id="rect12683-55-5-3"
         width="1.5875"
         height="1.5875"
         x="100.0125"
         y="28.575001" />
      <rect
         style="fill:#3a3a3a;fill-opacity:1;stroke:#000000;stroke-width:0;stroke-linejoin:miter;stroke-miterlimit:0.5;stroke-dasharray:none;stroke-opacity:1"
         id="rect12683-3-1-49-9-9-6"
         width="1.5875"
         height="1.5875"
         x="101.6"
         y="33.337498" />
      <rect
         style="fill:#393939;fill-opacity:1;stroke:#000000;stroke-width:0;stroke-linejoin:miter;stroke-miterlimit:0.5;stroke-dasharray:none;stroke-opacity:1"
         id="rect12683-3-1-4-9-3-1"
         width="1.5875"
         height="1.5875"
         x="100.0125"
         y="33.337494" />
      <rect
         style="fill:#a7a7a7;fill-opacity:1;stroke:#000000;stroke-width:0;stroke-linejoin:miter;stroke-miterlimit:0.5;stroke-dasharray:none;stroke-opacity:1"
         id="rect12683-3-1-44-9-0-1"
         width="1.5875"
         height="1.5875"
         x="100.0125"
         y="34.924995" />
      <rect
         style="fill:#363636;fill-opacity:1;stroke:#000000;stroke-width:0;stroke-linejoin:miter;stroke-miterlimit:0.5;stroke-dasharray:none;stroke-opacity:1"
         id="rect12683-6-6-7-8-5"
         width="1.5875"
         height="1.5875"
         x="101.6"
         y="34.924995" />
      <rect
         style="fill:#8e8e8e;fill-opacity:1;stroke:#000000;stroke-width:0;stroke-linejoin:miter;stroke-miterlimit:0.5;stroke-dasharray:none;stroke-opacity:1"
         id="rect12683-3-1-44-9-9"
         width="1.5875"
         height="1.5875"
         x="100.0125"
         y="31.749998" />
      <rect
         style="fill:#c9c9c9;fill-opacity:1;stroke:#000000;stroke-width:0;stroke-linejoin:miter;stroke-miterlimit:0.5;stroke-dasharray:none;stroke-opacity:1"
         id="rect12683-6-6-7-84"
         width="1.5875"
         height="1.5875"
         x="101.6"
         y="31.749998" />
      <rect
         style="fill:#292929;fill-opacity:1;stroke:#000000;stroke-width:0;stroke-linejoin:miter;stroke-miterlimit:0.5;stroke-dasharray:none;stroke-opacity:1"
         id="rect12683-3-1-49-9-9-5"
         width="1.5875"
         height="1.5875"
         x="101.6"
         y="38.100002" />
      <rect
         style="fill:#bdbdbd;fill-opacity:1;stroke:#000000;stroke-width:0;stroke-linejoin:miter;stroke-miterlimit:0.5;stroke-dasharray:none;stroke-opacity:1"
         id="rect12683-3-1-4-9-3-0"
         width="1.5875"
         height="1.5875"
         x="100.0125"
         y="38.099998" />
      <rect
         style="fill:#414141;fill-opacity:1;stroke:#000000;stroke-width:0;stroke-linejoin:miter;stroke-miterlimit:0.5;stroke-dasharray:none;stroke-opacity:1"
         id="rect12683-3-1-44-9-0-9"
         width="1.5875"
         height="1.5875"
         x="100.0125"
         y="39.6875" />
      <rect
         style="fill:#c9c9c9;fill-opacity:1;stroke:#000000;stroke-width:0;stroke-linejoin:miter;stroke-miterlimit:0.5;stroke-dasharray:none;stroke-opacity:1"
         id="rect12683-6-6-7-8-6"
         width="1.5875"
         height="1.5875"
         x="101.6"
         y="39.6875" />
      <rect
         style="fill:#282828;fill-opacity:1;stroke:#000000;stroke-width:0;stroke-linejoin:miter;stroke-miterlimit:0.5;stroke-dasharray:none;stroke-opacity:1"
         id="rect12683-3-1-44-9-3"
         width="1.5875"
         height="1.5875"
         x="100.0125"
         y="36.512501" />
      <rect
         style="fill:#bebebe;fill-opacity:1;stroke:#000000;stroke-width:0;stroke-linejoin:miter;stroke-miterlimit:0.5;stroke-dasharray:none;stroke-opacity:1"
         id="rect12683-6-6-7-85"
         width="1.5875"
         height="1.5875"
         x="101.6"
         y="36.512501" />
      <rect
         style="fill:#aeaeae;fill-opacity:1;stroke:#000000;stroke-width:0;stroke-linejoin:miter;stroke-miterlimit:0.5;stroke-dasharray:none;stroke-opacity:1"
         id="rect12683-3-1-49-9-9"
         width="1.5875"
         height="1.5875"
         x="98.425003"
         y="38.100002" />
      <rect
         style="fill:#9d9d9d;fill-opacity:1;stroke:#000000;stroke-width:0;stroke-linejoin:miter;stroke-miterlimit:0.5;stroke-dasharray:none;stroke-opacity:1"
         id="rect12683-3-1-4-9-3"
         width="1.5875"
         height="1.5875"
         x="96.837502"
         y="38.099998" />
      <rect
         style="fill:#bebebe;fill-opacity:1;stroke:#000000;stroke-width:0;stroke-linejoin:miter;stroke-miterlimit:0.5;stroke-dasharray:none;stroke-opacity:1"
         id="rect12683-3-1-7-0-9"
         width="1.5875"
         height="1.5875"
         x="95.25"
         y="39.687496" />
      <rect
         style="fill:#efefef;fill-opacity:1;stroke:#000000;stroke-width:0;stroke-linejoin:miter;stroke-miterlimit:0.5;stroke-dasharray:none;stroke-opacity:1"
         id="rect12683-3-1-44-9-0"
         width="1.5875"
         height="1.5875"
         x="96.837502"
         y="39.6875" />
      <rect
         style="fill:#272727;fill-opacity:1;stroke:#000000;stroke-width:0;stroke-linejoin:miter;stroke-miterlimit:0.5;stroke-dasharray:none;stroke-opacity:1"
         id="rect12683-6-6-7-8"
         width="1.5875"
         height="1.5875"
         x="98.425003"
         y="39.6875" />
      <rect
         style="fill:#999999;fill-opacity:1;stroke:#000000;stroke-width:0;stroke-linejoin:miter;stroke-miterlimit:0.5;stroke-dasharray:none;stroke-opacity:1"
         id="rect12683-3-1-711-8"
         width="1.5875"
         height="1.5875"
         x="95.25"
         y="38.100002" />
      <rect
         style="fill:#707070;fill-opacity:1;stroke:#000000;stroke-width:0;stroke-linejoin:miter;stroke-miterlimit:0.5;stroke-dasharray:none;stroke-opacity:1"
         id="rect12683-3-1-49-7"
         width="1.5875"
         height="1.5875"
         x="98.425003"
         y="30.162498" />
      <rect
         style="fill:#404040;fill-opacity:1;stroke:#000000;stroke-width:0;stroke-linejoin:miter;stroke-miterlimit:0.5;stroke-dasharray:none;stroke-opacity:1"
         id="rect12683-3-1-31-2"
         width="1.5875"
         height="1.5875"
         x="98.425003"
         y="28.574999" />
      <rect
         style="fill:#a0a0a0;fill-opacity:1;stroke:#000000;stroke-width:0;stroke-linejoin:miter;stroke-miterlimit:0.5;stroke-dasharray:none;stroke-opacity:1"
         id="rect12683-3-1-4-7"
         width="1.5875"
         height="1.5875"
         x="96.837502"
         y="30.162498" />
      <rect
         style="fill:#484848;fill-opacity:1;stroke:#000000;stroke-width:0;stroke-linejoin:miter;stroke-miterlimit:0.5;stroke-dasharray:none;stroke-opacity:1"
         id="rect12683-3-1-7-2"
         width="1.5875"
         height="1.5875"
         x="95.25"
         y="31.749996" />
      <rect
         style="fill:#3f3f3f;fill-opacity:1;stroke:#000000;stroke-width:0;stroke-linejoin:miter;stroke-miterlimit:0.5;stroke-dasharray:none;stroke-opacity:1"
         id="rect12683-3-1-44-2"
         width="1.5875"
         height="1.5875"
         x="96.837502"
         y="31.749996" />
      <rect
         style="fill:#8e8e8e;fill-opacity:1;stroke:#000000;stroke-width:0;stroke-linejoin:miter;stroke-miterlimit:0.5;stroke-dasharray:none;stroke-opacity:1"
         id="rect12683-3-1-5-6"
         width="1.5875"
         height="1.5875"
         x="95.25"
         y="28.575001" />
      <rect
         style="fill:#343434;fill-opacity:1;stroke:#000000;stroke-width:0;stroke-linejoin:miter;stroke-miterlimit:0.5;stroke-dasharray:none;stroke-opacity:1"
         id="rect12683-6-6-1"
         width="1.5875"
         height="1.5875"
         x="98.425003"
         y="31.75" />
      <rect
         style="fill:#2c2c2c;fill-opacity:1;stroke:#000000;stroke-width:0;stroke-linejoin:miter;stroke-miterlimit:0.5;stroke-dasharray:none;stroke-opacity:1"
         id="rect12683-3-1-061"
         width="1.5875"
         height="1.5875"
         x="95.25"
         y="30.162498" />
      <rect
         style="fill:#484848;fill-opacity:1;stroke:#000000;stroke-width:0;stroke-linejoin:miter;stroke-miterlimit:0.5;stroke-dasharray:none;stroke-opacity:1"
         id="rect12683-55-5"
         width="1.5875"
         height="1.5875"
         x="96.837502"
         y="28.574999" />
      <rect
         style="fill:#595959;fill-opacity:1;stroke:#000000;stroke-width:0;stroke-linejoin:miter;stroke-miterlimit:0.5;stroke-dasharray:none;stroke-opacity:1"
         id="rect12683-3-1-49-9"
         width="1.5875"
         height="1.5875"
         x="98.425003"
         y="34.925003" />
      <rect
         style="fill:#b4b4b4;fill-opacity:1;stroke:#000000;stroke-width:0;stroke-linejoin:miter;stroke-miterlimit:0.5;stroke-dasharray:none;stroke-opacity:1"
         id="rect12683-3-1-31-4"
         width="1.5875"
         height="1.5875"
         x="98.425003"
         y="33.337502" />
      <rect
         style="fill:#464646;fill-opacity:1;stroke:#000000;stroke-width:0;stroke-linejoin:miter;stroke-miterlimit:0.5;stroke-dasharray:none;stroke-opacity:1"
         id="rect12683-3-1-4-9"
         width="1.5875"
         height="1.5875"
         x="96.837502"
         y="34.924999" />
      <rect
         style="fill:#272727;fill-opacity:1;stroke:#000000;stroke-width:0;stroke-linejoin:miter;stroke-miterlimit:0.5;stroke-dasharray:none;stroke-opacity:1"
         id="rect12683-3-1-7-0"
         width="1.5875"
         height="1.5875"
         x="95.25"
         y="36.512497" />
      <rect
         style="fill:#303030;fill-opacity:1;stroke:#000000;stroke-width:0;stroke-linejoin:miter;stroke-miterlimit:0.5;stroke-dasharray:none;stroke-opacity:1"
         id="rect12683-3-1-44-9"
         width="1.5875"
         height="1.5875"
         x="96.837502"
         y="36.512501" />
      <rect
         style="fill:#979797;fill-opacity:1;stroke:#000000;stroke-width:0;stroke-linejoin:miter;stroke-miterlimit:0.5;stroke-dasharray:none;stroke-opacity:1"
         id="rect12683-3-1-5-1"
         width="1.5875"
         height="1.5875"
         x="95.25"
         y="33.337502" />
      <rect
         style="fill:#252525;fill-opacity:1;stroke:#000000;stroke-width:0;stroke-linejoin:miter;stroke-miterlimit:0.5;stroke-dasharray:none;stroke-opacity:1"
         id="rect12683-6-6-7"
         width="1.5875"
         height="1.5875"
         x="98.425003"
         y="36.512501" />
      <rect
         style="fill:#6c6c6c;fill-opacity:1;stroke:#000000;stroke-width:0;stroke-linejoin:miter;stroke-miterlimit:0.5;stroke-dasharray:none;stroke-opacity:1"
         id="rect12683-3-1-711"
         width="1.5875"
         height="1.5875"
         x="95.25"
         y="34.925003" />
      <rect
         style="fill:#cfcfcf;fill-opacity:1;stroke:#000000;stroke-width:0;stroke-linejoin:miter;stroke-miterlimit:0.5;stroke-dasharray:none;stroke-opacity:1"
         id="rect12683-55-59"
         width="1.5875"
         height="1.5875"
         x="96.837502"
         y="33.337502" />
      <rect
         style="fill:#282828;fill-opacity:1;stroke:#000000;stroke-width:0;stroke-linejoin:miter;stroke-miterlimit:0.5;stroke-dasharray:none;stroke-opacity:1"
         id="rect12683-3-1-71"
         width="1.5875"
         height="1.5875"
         x="90.487495"
         y="39.687504" />
      <rect
         style="fill:#bdbdbd;fill-opacity:1;stroke:#000000;stroke-width:0;stroke-linejoin:miter;stroke-miterlimit:0.5;stroke-dasharray:none;stroke-opacity:1"
         id="rect12683-3-1-48"
         width="1.5875"
         height="1.5875"
         x="92.074997"
         y="39.6875" />
      <rect
         style="fill:#3d3d3d;fill-opacity:1;stroke:#000000;stroke-width:0;stroke-linejoin:miter;stroke-miterlimit:0.5;stroke-dasharray:none;stroke-opacity:1"
         id="rect12683-3-1-50"
         width="1.5875"
         height="1.5875"
         x="93.662498"
         y="39.687504" />
      <rect
         style="fill:#434343;fill-opacity:1;stroke:#000000;stroke-width:0;stroke-linejoin:miter;stroke-miterlimit:0.5;stroke-dasharray:none;stroke-opacity:1"
         id="rect12683-3-1-9"
         width="1.5875"
         height="1.5875"
         x="93.662498"
         y="38.100002" />
      <rect
         style="fill:#171717;fill-opacity:1;stroke:#000000;stroke-width:0;stroke-linejoin:miter;stroke-miterlimit:0.5;stroke-dasharray:none;stroke-opacity:1"
         id="rect12683-3-1-64"
         width="1.5875"
         height="1.5875"
         x="92.074997"
         y="38.099998" />
      <rect
         style="fill:#979797;fill-opacity:1;stroke:#000000;stroke-width:0;stroke-linejoin:miter;stroke-miterlimit:0.5;stroke-dasharray:none;stroke-opacity:1"
         id="rect12683-3-1-26"
         width="1.5875"
         height="1.5875"
         x="90.487495"
         y="38.099998" />
      <rect
         style="fill:#070707;fill-opacity:1;stroke:#000000;stroke-width:0;stroke-linejoin:miter;stroke-miterlimit:0.5;stroke-dasharray:none;stroke-opacity:1"
         id="rect12683-3-1-06"
         width="1.5875"
         height="1.5875"
         x="93.662498"
         y="34.924999" />
      <rect
         style="fill:#555555;fill-opacity:1;stroke:#000000;stroke-width:0;stroke-linejoin:miter;stroke-miterlimit:0.5;stroke-dasharray:none;stroke-opacity:1"
         id="rect12683-3-1-89"
         width="1.5875"
         height="1.5875"
         x="93.662498"
         y="36.512501" />
      <rect
         style="fill:#535353;fill-opacity:1;stroke:#000000;stroke-width:0;stroke-linejoin:miter;stroke-miterlimit:0.5;stroke-dasharray:none;stroke-opacity:1"
         id="rect12683-3-1-2"
         width="1.5875"
         height="1.5875"
         x="93.662498"
         y="33.337498" />
      <rect
         style="fill:#939393;fill-opacity:1;stroke:#000000;stroke-width:0;stroke-linejoin:miter;stroke-miterlimit:0.5;stroke-dasharray:none;stroke-opacity:1"
         id="rect12683-3-1-49"
         width="1.5875"
         height="1.5875"
         x="93.662498"
         y="30.162502" />
      <rect
         style="fill:#000000;fill-opacity:1;stroke:#000000;stroke-width:0;stroke-linejoin:miter;stroke-miterlimit:0.5;stroke-dasharray:none;stroke-opacity:1"
         id="rect12683-3-1-31"
         width="1.5875"
         height="1.5875"
         x="93.662498"
         y="28.575001" />
      <rect
         style="fill:#b6b6b6;fill-opacity:1;stroke:#000000;stroke-width:0;stroke-linejoin:miter;stroke-miterlimit:0.5;stroke-dasharray:none;stroke-opacity:1"
         id="rect12683-3-1-84"
         width="1.5875"
         height="1.5875"
         x="92.074997"
         y="36.512501" />
      <rect
         style="fill:#3d3d3d;fill-opacity:1;stroke:#000000;stroke-width:0;stroke-linejoin:miter;stroke-miterlimit:0.5;stroke-dasharray:none;stroke-opacity:1"
         id="rect12683-3-1-8"
         width="1.5875"
         height="1.5875"
         x="90.487495"
         y="36.512501" />
      <rect
         style="fill:#2d2d2d;fill-opacity:1;stroke:#000000;stroke-width:0;stroke-linejoin:miter;stroke-miterlimit:0.5;stroke-dasharray:none;stroke-opacity:1"
         id="rect12683-3-1-4"
         width="1.5875"
         height="1.5875"
         x="92.074997"
         y="30.1625" />
      <rect
         style="fill:#e7e7e7;fill-opacity:1;stroke:#000000;stroke-width:0;stroke-linejoin:miter;stroke-miterlimit:0.5;stroke-dasharray:none;stroke-opacity:1"
         id="rect12683-3-1-7"
         width="1.5875"
         height="1.5875"
         x="90.487495"
         y="31.749998" />
      <rect
         style="fill:#a1a1a1;fill-opacity:1;stroke:#000000;stroke-width:0;stroke-linejoin:miter;stroke-miterlimit:0.5;stroke-dasharray:none;stroke-opacity:1"
         id="rect12683-3-1-44"
         width="1.5875"
         height="1.5875"
         x="92.074997"
         y="31.75" />
      <rect
         style="fill:#676767;fill-opacity:1;stroke:#000000;stroke-width:0;stroke-linejoin:miter;stroke-miterlimit:0.5;stroke-dasharray:none;stroke-opacity:1"
         id="rect12683-3-1-3"
         width="1.5875"
         height="1.5875"
         x="90.487495"
         y="33.337502" />
      <rect
         style="fill:#6d6d6d;fill-opacity:1;stroke:#000000;stroke-width:0;stroke-linejoin:miter;stroke-miterlimit:0.5;stroke-dasharray:none;stroke-opacity:1"
         id="rect12683-3-1-0"
         width="1.5875"
         height="1.5875"
         x="92.074997"
         y="33.337498" />
      <rect
         style="fill:#2f2f2f;fill-opacity:1;stroke:#000000;stroke-width:0;stroke-linejoin:miter;stroke-miterlimit:0.5;stroke-dasharray:none;stroke-opacity:1"
         id="rect12683-3-1-78"
         width="1.5875"
         height="1.5875"
         x="90.487495"
         y="34.924999" />
      <rect
         style="fill:#939393;fill-opacity:1;stroke:#000000;stroke-width:0;stroke-linejoin:miter;stroke-miterlimit:0.5;stroke-dasharray:none;stroke-opacity:1"
         id="rect12683-3-1-6"
         width="1.5875"
         height="1.5875"
         x="92.074997"
         y="34.924999" />
      <rect
         style="fill:#d0d0d0;fill-opacity:1;stroke:#000000;stroke-width:0;stroke-linejoin:miter;stroke-miterlimit:0.5;stroke-dasharray:none;stroke-opacity:1"
         id="rect12683-3-1-5"
         width="1.5875"
         height="1.5875"
         x="90.487495"
         y="28.575003" />
      <rect
         style="fill:#262626;fill-opacity:1;stroke:#000000;stroke-width:0;stroke-linejoin:miter;stroke-miterlimit:0.5;stroke-dasharray:none;stroke-opacity:1"
         id="rect12683-6-6"
         width="1.5875"
         height="1.5875"
         x="93.662498"
         y="31.750002" />
      <rect
         style="fill:#5d5d5d;fill-opacity:1;stroke:#000000;stroke-width:0;stroke-linejoin:miter;stroke-miterlimit:0.5;stroke-dasharray:none;stroke-opacity:1"
         id="rect12683-3-1"
         width="1.5875"
         height="1.5875"
         x="90.487495"
         y="30.162502" />
      <rect
         style="fill:#5b5b5b;fill-opacity:1;stroke:#000000;stroke-width:0;stroke-linejoin:miter;stroke-miterlimit:0.5;stroke-dasharray:none;stroke-opacity:1"
         id="rect12683-55"
         width="1.5875"
         height="1.5875"
         x="92.074997"
         y="28.575001" />
    </g>
    <path
       style="fill:none;fill-opacity:1;stroke:#000000;stroke-width:0.3;stroke-linejoin:miter;stroke-miterlimit:0.5;stroke-dasharray:none;stroke-opacity:1;marker-end:url(#marker29544)"
       d="M 82.427349,35.228218 H 89.69375"
       id="path29540" />
    <path
       style="fill:none;fill-opacity:1;stroke:#000000;stroke-width:0.3;stroke-linejoin:miter;stroke-miterlimit:0.5;stroke-dasharray:none;stroke-opacity:1;marker-end:url(#marker30368)"
       d="m 57.149999,19.05 c 8.73125,0 8.73125,8.73125 8.73125,8.73125"
       id="path30364" />
    <g
       inkscape:label=""
       transform="translate(10.514231,9.3719374)"
       id="g35544">
      <g
         fill="#000000"
         fill-opacity="1"
         id="g35524"
         transform="matrix(0.352778,0,0,0.352778,-0.15434,0.0637205)">
        <g
           id="g35522"
           transform="translate(0,4.085)">
          <path
             d="m 1.359375,-0.734375 c -0.234375,0.34375 -0.4375,0.46875 -0.765625,0.5 -0.09375,0 -0.15625,0 -0.15625,0.140625 C 0.4375,-0.03125 0.484375,0 0.515625,0 0.6875,0 0.890625,-0.03125 1.0625,-0.03125 1.203125,-0.03125 1.5625,0 1.703125,0 c 0.0625,0 0.125,-0.03125 0.125,-0.15625 0,-0.078125 -0.078125,-0.078125 -0.09375,-0.078125 C 1.578125,-0.25 1.453125,-0.28125 1.453125,-0.40625 c 0,-0.078125 0.0625,-0.1875 0.078125,-0.21875 l 0.5,-0.734375 h 1.796875 l 0.15625,0.96875 c 0,0.15625 -0.34375,0.15625 -0.40625,0.15625 -0.078125,0 -0.171875,0 -0.171875,0.140625 C 3.40625,-0.0625 3.4375,0 3.5,0 c 0.1875,0 0.625,-0.03125 0.796875,-0.03125 0.125,0 0.234375,0.015625 0.359375,0.015625 C 4.78125,-0.015625 4.90625,0 5.015625,0 5.0625,0 5.15625,0 5.15625,-0.15625 c 0,-0.078125 -0.078125,-0.078125 -0.171875,-0.078125 -0.375,0 -0.375,-0.046875 -0.40625,-0.203125 L 3.984375,-4.109375 C 3.96875,-4.21875 3.96875,-4.265625 3.828125,-4.265625 c -0.125,0 -0.15625,0.046875 -0.21875,0.125 z M 2.1875,-1.59375 3.484375,-3.546875 3.78125,-1.59375 Z m 0,0"
             id="path35520" />
        </g>
      </g>
      <g
         fill="#000000"
         fill-opacity="1"
         id="g35530"
         transform="matrix(0.352778,0,0,0.352778,-0.15434,0.0637205)">
        <g
           id="g35528"
           transform="translate(5.5240002,5.3470001)">
          <path
             d="m 2.53125,-1.890625 c -0.171875,0.0625 -0.203125,0.203125 -0.203125,0.25 0,0.125 0.109375,0.1875 0.1875,0.1875 0.0625,0 0.265625,-0.046875 0.265625,-0.3125 0,-0.328125 -0.390625,-0.4375 -0.765625,-0.4375 -0.84375,0 -1,0.515625 -1,0.6875 0,0.1875 0.09375,0.296875 0.1875,0.359375 0.140625,0.09375 0.296875,0.125 0.5625,0.171875 0.3125,0.046875 0.65625,0.09375 0.65625,0.34375 0,0.015625 0,0.53125 -0.921875,0.53125 -0.1875,0 -0.5,-0.015625 -0.65625,-0.171875 0.1875,-0.046875 0.265625,-0.1875 0.265625,-0.3125 0,-0.140625 -0.109375,-0.203125 -0.21875,-0.203125 -0.171875,0 -0.3125,0.140625 -0.3125,0.359375 0,0.5 0.765625,0.5 0.921875,0.5 1.015625,0 1.1875,-0.59375 1.1875,-0.796875 C 2.6875,-1.1875 2.140625,-1.265625 1.890625,-1.3125 1.53125,-1.375 1.28125,-1.40625 1.28125,-1.609375 c 0,-0.015625 0,-0.421875 0.71875,-0.421875 0.140625,0 0.390625,0 0.53125,0.140625 z m 0,0"
             id="path35526" />
        </g>
      </g>
      <g
         fill="#000000"
         fill-opacity="1"
         id="g35536"
         transform="matrix(0.352778,0,0,0.352778,-0.15434,0.0637205)">
        <g
           id="g35534"
           transform="translate(8.8620005,5.3470001)">
          <path
             d="m 4.390625,-1.109375 c 0.078125,0 0.203125,0 0.203125,-0.140625 0,-0.140625 -0.125,-0.140625 -0.203125,-0.140625 h -3.375 c -0.078125,0 -0.21875,0 -0.21875,0.140625 0,0.140625 0.140625,0.140625 0.21875,0.140625 z m 0,0"
             id="path35532" />
        </g>
      </g>
      <g
         fill="#000000"
         fill-opacity="1"
         id="g35542"
         transform="matrix(0.352778,0,0,0.352778,-0.15434,0.0637205)">
        <g
           id="g35540"
           transform="translate(14.258,5.3470001)">
          <path
             d="M 1.984375,-3.171875 C 1.984375,-3.3125 1.96875,-3.3125 1.796875,-3.3125 1.453125,-3 0.890625,-3 0.796875,-3 H 0.71875 v 0.21875 h 0.078125 c 0.109375,0 0.4375,-0.015625 0.734375,-0.140625 v 2.5 c 0,0.140625 0,0.203125 -0.53125,0.203125 H 0.75 V 0 c 0.265625,-0.015625 0.71875,-0.015625 1,-0.015625 0.296875,0 0.734375,0 1.015625,0.015625 v -0.21875 h -0.25 c -0.53125,0 -0.53125,-0.0625 -0.53125,-0.203125 z m 0,0"
             id="path35538" />
        </g>
      </g>
    </g>
    <g
       inkscape:label=""
       transform="translate(11.590998,42.968288)"
       id="g36788">
      <g
         fill="#000000"
         fill-opacity="1"
         id="g20"
         transform="matrix(0.352778,0,0,0.352778,-0.181901,-0.00758476)">
        <g
           id="use18"
           transform="translate(0,4.0840001)">
          <path
             d="M 2.203125,-1.984375 H 2.90625 c 0.546875,0 0.5625,0.09375 0.5625,0.28125 0,0.140625 -0.015625,0.21875 -0.046875,0.328125 0,0.015625 0,0.09375 0.109375,0.09375 0.078125,0 0.09375,-0.03125 0.125,-0.140625 L 4.015625,-2.84375 c 0,0 -0.015625,-0.078125 -0.125,-0.078125 -0.078125,0 -0.09375,0.03125 -0.109375,0.109375 -0.140625,0.5 -0.296875,0.59375 -0.859375,0.59375 H 2.265625 L 2.609375,-3.625 c 0.046875,-0.1875 0.046875,-0.203125 0.3125,-0.203125 h 1.03125 c 0.796875,0 1.03125,0.140625 1.03125,0.71875 0,0.109375 -0.015625,0.25 -0.015625,0.34375 0,0.109375 0.078125,0.109375 0.109375,0.109375 0.09375,0 0.109375,-0.046875 0.109375,-0.15625 L 5.296875,-3.875 C 5.3125,-4.0625 5.265625,-4.0625 5.125,-4.0625 H 1.65625 c -0.109375,0 -0.1875,0 -0.1875,0.15625 0,0.078125 0.078125,0.078125 0.1875,0.078125 0.109375,0 0.265625,0 0.390625,0.046875 0,0.0625 0,0.09375 -0.03125,0.1875 L 1.234375,-0.5 c -0.046875,0.21875 -0.0625,0.265625 -0.515625,0.265625 -0.125,0 -0.203125,0 -0.203125,0.140625 C 0.515625,0 0.59375,0 0.6875,0 H 4.25 c 0.125,0 0.125,0 0.15625,-0.015625 0.015625,-0.015625 0.015625,-0.03125 0.0625,-0.109375 0.0625,-0.15625 0.609375,-1.34375 0.609375,-1.390625 0,-0.078125 -0.09375,-0.078125 -0.109375,-0.078125 -0.078125,0 -0.09375,0.015625 -0.15625,0.15625 -0.40625,0.890625 -0.71875,1.203125 -1.75,1.203125 H 1.96875 c -0.109375,0 -0.125,0 -0.1875,-0.015625 z m 0,0"
             id="path36" />
        </g>
      </g>
      <g
         fill="#000000"
         fill-opacity="1"
         id="g24"
         transform="matrix(0.352778,0,0,0.352778,-0.181901,-0.00758476)">
        <g
           id="use22"
           transform="translate(5.3779998,5.0809999)">
          <path
             d="m 2.5625,-1.921875 c -0.078125,0.015625 -0.21875,0.125 -0.21875,0.296875 0,0.125 0.09375,0.203125 0.21875,0.203125 0.109375,0 0.296875,-0.09375 0.296875,-0.34375 0,-0.375 -0.484375,-0.4375 -0.75,-0.4375 -0.84375,0 -1.578125,0.6875 -1.578125,1.34375 0,0.4375 0.328125,0.921875 1.078125,0.921875 0.09375,0 0.484375,0 0.828125,-0.140625 0.328125,-0.125 0.53125,-0.359375 0.53125,-0.40625 0,-0.046875 -0.0625,-0.125 -0.109375,-0.125 -0.015625,0 -0.03125,0.015625 -0.109375,0.09375 -0.21875,0.25 -0.640625,0.40625 -1.140625,0.40625 -0.421875,0 -0.625,-0.234375 -0.625,-0.578125 0,-0.515625 0.34375,-1.34375 1.125,-1.34375 0.046875,0 0.296875,0 0.453125,0.109375 z m 0,0"
             id="path40" />
        </g>
      </g>
      <g
         clip-path="url(#clipPath4541)"
         id="g30"
         transform="matrix(0.352778,0,0,0.352778,-0.181901,-0.00758476)">
        <g
           fill="#000000"
           fill-opacity="1"
           id="g28">
          <g
             id="use26"
             transform="translate(8.6129999,6.0770001)">
            <path
               d="m 2.53125,-1.890625 c -0.171875,0.0625 -0.203125,0.203125 -0.203125,0.25 0,0.125 0.109375,0.1875 0.1875,0.1875 0.0625,0 0.265625,-0.046875 0.265625,-0.3125 0,-0.328125 -0.390625,-0.4375 -0.765625,-0.4375 -0.84375,0 -1,0.515625 -1,0.6875 0,0.1875 0.09375,0.296875 0.1875,0.359375 0.140625,0.09375 0.296875,0.125 0.5625,0.171875 0.3125,0.046875 0.65625,0.09375 0.65625,0.34375 0,0.015625 0,0.53125 -0.921875,0.53125 -0.1875,0 -0.5,-0.015625 -0.65625,-0.171875 0.1875,-0.046875 0.265625,-0.1875 0.265625,-0.3125 0,-0.140625 -0.109375,-0.203125 -0.21875,-0.203125 -0.171875,0 -0.3125,0.140625 -0.3125,0.359375 0,0.5 0.765625,0.5 0.921875,0.5 1.015625,0 1.1875,-0.59375 1.1875,-0.796875 C 2.6875,-1.1875 2.140625,-1.265625 1.890625,-1.3125 1.53125,-1.375 1.28125,-1.40625 1.28125,-1.609375 c 0,-0.015625 0,-0.421875 0.71875,-0.421875 0.140625,0 0.390625,0 0.53125,0.140625 z m 0,0"
               id="path44" />
          </g>
        </g>
      </g>
    </g>
    <g
       inkscape:label=""
       transform="translate(91.111291,43.490885)"
       id="g37760">
      <g
         fill="#000000"
         fill-opacity="1"
         id="g37730"
         transform="matrix(0.352778,0,0,0.352778,-0.181901,-0.00758476)">
        <g
           id="g37728"
           transform="translate(0,4.0840001)">
          <path
             d="M 2.203125,-1.984375 H 2.90625 c 0.546875,0 0.5625,0.09375 0.5625,0.28125 0,0.140625 -0.015625,0.21875 -0.046875,0.328125 0,0.015625 0,0.09375 0.109375,0.09375 0.078125,0 0.09375,-0.03125 0.125,-0.140625 L 4.015625,-2.84375 c 0,0 -0.015625,-0.078125 -0.125,-0.078125 -0.078125,0 -0.09375,0.03125 -0.109375,0.109375 -0.140625,0.5 -0.296875,0.59375 -0.859375,0.59375 H 2.265625 L 2.609375,-3.625 c 0.046875,-0.1875 0.046875,-0.203125 0.3125,-0.203125 h 1.03125 c 0.796875,0 1.03125,0.140625 1.03125,0.71875 0,0.109375 -0.015625,0.25 -0.015625,0.34375 0,0.109375 0.078125,0.109375 0.109375,0.109375 0.09375,0 0.109375,-0.046875 0.109375,-0.15625 L 5.296875,-3.875 C 5.3125,-4.0625 5.265625,-4.0625 5.125,-4.0625 H 1.65625 c -0.109375,0 -0.1875,0 -0.1875,0.15625 0,0.078125 0.078125,0.078125 0.1875,0.078125 0.109375,0 0.265625,0 0.390625,0.046875 0,0.0625 0,0.09375 -0.03125,0.1875 L 1.234375,-0.5 c -0.046875,0.21875 -0.0625,0.265625 -0.515625,0.265625 -0.125,0 -0.203125,0 -0.203125,0.140625 C 0.515625,0 0.59375,0 0.6875,0 H 4.25 c 0.125,0 0.125,0 0.15625,-0.015625 0.015625,-0.015625 0.015625,-0.03125 0.0625,-0.109375 0.0625,-0.15625 0.609375,-1.34375 0.609375,-1.390625 0,-0.078125 -0.09375,-0.078125 -0.109375,-0.078125 -0.078125,0 -0.09375,0.015625 -0.15625,0.15625 -0.40625,0.890625 -0.71875,1.203125 -1.75,1.203125 H 1.96875 c -0.109375,0 -0.125,0 -0.1875,-0.015625 z m 0,0"
             id="path37726" />
        </g>
      </g>
      <g
         fill="#000000"
         fill-opacity="1"
         id="g45"
         transform="matrix(0.352778,0,0,0.352778,-0.181901,-0.00758476)">
        <g
           id="use43"
           transform="translate(5.3779998,5.0799999)">
          <path
             d="m 2.5625,-1.921875 c -0.078125,0.015625 -0.21875,0.125 -0.21875,0.296875 0,0.125 0.09375,0.203125 0.21875,0.203125 0.109375,0 0.296875,-0.09375 0.296875,-0.34375 0,-0.375 -0.484375,-0.4375 -0.75,-0.4375 -0.84375,0 -1.578125,0.6875 -1.578125,1.34375 0,0.4375 0.328125,0.921875 1.078125,0.921875 0.09375,0 0.484375,0 0.828125,-0.140625 0.328125,-0.125 0.53125,-0.359375 0.53125,-0.40625 0,-0.046875 -0.0625,-0.125 -0.109375,-0.125 -0.015625,0 -0.03125,0.015625 -0.109375,0.09375 -0.21875,0.25 -0.640625,0.40625 -1.140625,0.40625 -0.421875,0 -0.625,-0.234375 -0.625,-0.578125 0,-0.515625 0.34375,-1.34375 1.125,-1.34375 0.046875,0 0.296875,0 0.453125,0.109375 z m 0,0"
             id="path87" />
        </g>
      </g>
      <g
         clip-path="url(#clipPath966)"
         id="g37739"
         transform="matrix(0.352778,0,0,0.352778,-0.181901,-0.00758476)">
        <g
           fill="#000000"
           fill-opacity="1"
           id="g49">
          <g
             id="g37736"
             transform="translate(8.6129999,7.1009998)">
            <path
               d="m 2.046875,-3.09375 c 0,-0.140625 0.09375,-0.4375 0.84375,-0.46875 0.015625,0 0.0625,-0.03125 0.0625,-0.09375 0,-0.078125 -0.046875,-0.078125 -0.140625,-0.078125 -0.390625,0 -1.109375,0.0625 -1.1875,0.578125 0,0.03125 0,0.046875 0,0.203125 V -2.0625 c 0,0.296875 0,0.40625 -0.171875,0.53125 C 1.25,-1.375 0.984375,-1.328125 0.84375,-1.328125 c -0.09375,0 -0.125,0 -0.125,0.078125 0,0.015625 0,0.078125 0.0625,0.09375 0.71875,0.015625 0.828125,0.359375 0.84375,0.5 v 1.0625 c 0,0.3125 0,0.515625 0.390625,0.703125 C 2.171875,1.1875 2.484375,1.25 2.8125,1.25 c 0.09375,0 0.140625,0 0.140625,-0.09375 0,-0.015625 0,-0.078125 -0.078125,-0.078125 C 2.375,1.0625 2.125,0.90625 2.0625,0.671875 2.046875,0.640625 2.046875,0.578125 2.046875,0.515625 V -0.5625 c 0,-0.171875 0,-0.515625 -0.59375,-0.6875 0.40625,-0.109375 0.59375,-0.3125 0.59375,-0.625 z m 0,0"
               id="path91" />
          </g>
        </g>
      </g>
      <g
         fill="#000000"
         fill-opacity="1"
         id="g55"
         transform="matrix(0.352778,0,0,0.352778,-0.181901,-0.00758476)">
        <g
           id="use53"
           transform="translate(12.28,7.1009998)">
          <path
             d="m 2.53125,-1.890625 c -0.171875,0.0625 -0.203125,0.203125 -0.203125,0.25 0,0.125 0.109375,0.1875 0.1875,0.1875 0.0625,0 0.265625,-0.046875 0.265625,-0.3125 0,-0.328125 -0.390625,-0.4375 -0.765625,-0.4375 -0.84375,0 -1,0.515625 -1,0.6875 0,0.1875 0.09375,0.296875 0.1875,0.359375 0.140625,0.09375 0.296875,0.125 0.5625,0.171875 0.3125,0.046875 0.65625,0.09375 0.65625,0.34375 0,0.015625 0,0.53125 -0.921875,0.53125 -0.1875,0 -0.5,-0.015625 -0.65625,-0.171875 0.1875,-0.046875 0.265625,-0.1875 0.265625,-0.3125 0,-0.140625 -0.109375,-0.203125 -0.21875,-0.203125 -0.171875,0 -0.3125,0.140625 -0.3125,0.359375 0,0.5 0.765625,0.5 0.921875,0.5 1.015625,0 1.1875,-0.59375 1.1875,-0.796875 C 2.6875,-1.1875 2.140625,-1.265625 1.890625,-1.3125 1.53125,-1.375 1.28125,-1.40625 1.28125,-1.609375 c 0,-0.015625 0,-0.421875 0.71875,-0.421875 0.140625,0 0.390625,0 0.53125,0.140625 z m 0,0"
             id="path95" />
        </g>
      </g>
      <g
         fill="#000000"
         fill-opacity="1"
         id="g59"
         transform="matrix(0.352778,0,0,0.352778,-0.181901,-0.00758476)">
        <g
           id="use57"
           transform="translate(15.618,7.1009998)">
          <path
             d="m 4.390625,-1.109375 c 0.078125,0 0.203125,0 0.203125,-0.140625 0,-0.140625 -0.125,-0.140625 -0.203125,-0.140625 h -3.375 c -0.078125,0 -0.21875,0 -0.21875,0.140625 0,0.140625 0.140625,0.140625 0.21875,0.140625 z m 0,0"
             id="path99" />
        </g>
      </g>
      <g
         fill="#000000"
         fill-opacity="1"
         id="g63"
         transform="matrix(0.352778,0,0,0.352778,-0.181901,-0.00758476)">
        <g
           id="use61"
           transform="translate(21.014999,7.1009998)">
          <path
             d="M 1.984375,-3.171875 C 1.984375,-3.3125 1.96875,-3.3125 1.796875,-3.3125 1.453125,-3 0.890625,-3 0.796875,-3 H 0.71875 v 0.21875 h 0.078125 c 0.109375,0 0.4375,-0.015625 0.734375,-0.140625 v 2.5 c 0,0.140625 0,0.203125 -0.53125,0.203125 H 0.75 V 0 c 0.265625,-0.015625 0.71875,-0.015625 1,-0.015625 0.296875,0 0.734375,0 1.015625,0.015625 v -0.21875 h -0.25 c -0.53125,0 -0.53125,-0.0625 -0.53125,-0.203125 z m 0,0"
             id="path103" />
        </g>
      </g>
      <g
         clip-path="url(#clipPath9539)"
         id="g71"
         transform="matrix(0.352778,0,0,0.352778,-0.181901,-0.00758476)">
        <g
           fill="#000000"
           fill-opacity="1"
           id="g69">
          <g
             id="use65"
             transform="translate(24.405001,7.1009998)">
            <path
               d="m 1.34375,-0.0625 c 0,0.46875 -0.25,0.75 -0.390625,0.859375 -0.046875,0.03125 -0.0625,0.046875 -0.0625,0.078125 0,0.03125 0.046875,0.09375 0.09375,0.09375 0.0625,0 0.53125,-0.390625 0.53125,-1.015625 0,-0.34375 -0.15625,-0.5625 -0.375,-0.5625 -0.1875,0 -0.296875,0.15625 -0.296875,0.3125 C 0.84375,-0.140625 0.953125,0 1.140625,0 1.21875,0 1.296875,-0.015625 1.34375,-0.0625 Z m 0,0"
               id="path107" />
          </g>
          <g
             id="use67"
             transform="translate(26.687929,7.1009998)">
            <path
               d="m 2.53125,-1.890625 c -0.171875,0.0625 -0.203125,0.203125 -0.203125,0.25 0,0.125 0.109375,0.1875 0.1875,0.1875 0.0625,0 0.265625,-0.046875 0.265625,-0.3125 0,-0.328125 -0.390625,-0.4375 -0.765625,-0.4375 -0.84375,0 -1,0.515625 -1,0.6875 0,0.1875 0.09375,0.296875 0.1875,0.359375 0.140625,0.09375 0.296875,0.125 0.5625,0.171875 0.3125,0.046875 0.65625,0.09375 0.65625,0.34375 0,0.015625 0,0.53125 -0.921875,0.53125 -0.1875,0 -0.5,-0.015625 -0.65625,-0.171875 0.1875,-0.046875 0.265625,-0.1875 0.265625,-0.3125 0,-0.140625 -0.109375,-0.203125 -0.21875,-0.203125 -0.171875,0 -0.3125,0.140625 -0.3125,0.359375 0,0.5 0.765625,0.5 0.921875,0.5 1.015625,0 1.1875,-0.59375 1.1875,-0.796875 C 2.6875,-1.1875 2.140625,-1.265625 1.890625,-1.3125 1.53125,-1.375 1.28125,-1.40625 1.28125,-1.609375 c 0,-0.015625 0,-0.421875 0.71875,-0.421875 0.140625,0 0.390625,0 0.53125,0.140625 z m 0,0"
               id="path111" />
          </g>
        </g>
      </g>
      <g
         clip-path="url(#clipPath9511)"
         id="g77"
         transform="matrix(0.352778,0,0,0.352778,-0.181901,-0.00758476)">
        <g
           fill="#000000"
           fill-opacity="1"
           id="g75">
          <g
             id="use73"
             transform="translate(30.025999,7.1009998)">
            <path
               d="m 1.625,0.59375 c 0,0.15625 -0.109375,0.453125 -0.84375,0.484375 -0.046875,0 -0.0625,0.03125 -0.0625,0.078125 C 0.71875,1.25 0.765625,1.25 0.875,1.25 c 0.359375,0 1.078125,-0.0625 1.171875,-0.59375 0,-0.03125 0,-0.03125 0,-0.1875 V -0.4375 c 0,-0.28125 0,-0.390625 0.171875,-0.53125 0.1875,-0.15625 0.46875,-0.1875 0.609375,-0.1875 0.078125,-0.015625 0.125,-0.015625 0.125,-0.09375 0,-0.015625 0,-0.078125 -0.078125,-0.078125 C 2.171875,-1.359375 2.046875,-1.6875 2.046875,-1.84375 v -1.046875 c 0,-0.328125 0,-0.53125 -0.390625,-0.71875 -0.171875,-0.0625 -0.484375,-0.125 -0.78125,-0.125 -0.109375,0 -0.15625,0 -0.15625,0.078125 0,0.015625 0,0.078125 0.0625,0.09375 0.515625,0.015625 0.765625,0.171875 0.828125,0.390625 C 1.625,-3.125 1.625,-3.078125 1.625,-3 v 1.078125 C 1.625,-1.75 1.625,-1.40625 2.21875,-1.25 1.8125,-1.140625 1.625,-0.921875 1.625,-0.625 Z m 0,0"
               id="path115" />
          </g>
        </g>
      </g>
    </g>
  </g>
</svg>
